<svg xmlns="http://www.w3.org/2000/svg" width="26.168" height="29.529" viewBox="0 0 26.168 29.529"><defs><style>.a{fill:#282d5f;}</style></defs><path class="a" d="M1.354,0C2.106.006,2.72.855,2.724,1.9L2.758,9.44c0,1.042-.6,1.881-1.354,1.875S.038,10.46.034,9.418L0,1.875C0,.833.6-.006,1.354,0Z" transform="translate(15.751 20.375) rotate(-36)"/><path class="a" d="M8.808,18.754a8.584,8.584,0,0,1-6.261-2.606A9.073,9.073,0,0,1,0,9.567,9.734,9.734,0,0,1,9.316,0l.126,0A8.587,8.587,0,0,1,15.7,2.607,9.073,9.073,0,0,1,18.25,9.189a9.736,9.736,0,0,1-9.315,9.564ZM9.332,3.275H9.25A6.335,6.335,0,0,0,3.188,9.5a5.9,5.9,0,0,0,1.656,4.282,5.59,5.59,0,0,0,4.077,1.7H9a6.335,6.335,0,0,0,6.062-6.225,5.9,5.9,0,0,0-1.656-4.284A5.586,5.586,0,0,0,9.332,3.275Z" transform="translate(0 12.906) rotate(-45)"/></svg>